{
    "patcher": {
        "fileversion": 1,
        "appversion": {
            "major": 9,
            "minor": 1,
            "revision": 1,
            "architecture": "x64",
            "modernui": 1
        },
        "classnamespace": "box",
        "rect": [ 34.0, 100.0, 1660.0, 983.0 ],
        "gridsnaponopen": 2,
        "subpatcher_template": "no_borders_gridlock",
        "integercoordinates": 1,
        "boxes": [
            {
                "box": {
                    "id": "obj-7",
                    "maxclass": "newobj",
                    "numinlets": 1,
                    "numoutlets": 2,
                    "outlettype": [ "bang", "int" ],
                    "patching_rect": [ 411.0, 240.0, 30.0, 22.0 ],
                    "text": "t b i"
                }
            },
            {
                "box": {
                    "id": "obj-5",
                    "maxclass": "newobj",
                    "numinlets": 2,
                    "numoutlets": 2,
                    "outlettype": [ "", "" ],
                    "patching_rect": [ 165.0, 158.0, 66.0, 22.0 ],
                    "text": "route done"
                }
            },
            {
                "box": {
                    "id": "obj-3",
                    "maxclass": "newobj",
                    "numinlets": 1,
                    "numoutlets": 2,
                    "outlettype": [ "", "" ],
                    "patching_rect": [ 65.0, 128.0, 119.0, 22.0 ],
                    "text": "patcherargs @size 8"
                }
            },
            {
                "box": {
                    "id": "obj-2",
                    "maxclass": "newobj",
                    "numinlets": 1,
                    "numoutlets": 6,
                    "outlettype": [ "signal", "bang", "int", "float", "", "" ],
                    "patching_rect": [ 390.0, 210.0, 72.0, 22.0 ],
                    "text": "typeroute~"
                }
            },
            {
                "box": {
                    "id": "obj-42",
                    "maxclass": "newobj",
                    "numinlets": 2,
                    "numoutlets": 2,
                    "outlettype": [ "", "" ],
                    "patching_rect": [ 312.0, 210.0, 61.0, 22.0 ],
                    "text": "route size"
                }
            },
            {
                "box": {
                    "comment": "",
                    "id": "obj-41",
                    "index": 1,
                    "maxclass": "inlet",
                    "numinlets": 0,
                    "numoutlets": 1,
                    "outlettype": [ "bang" ],
                    "patching_rect": [ 312.0, 150.0, 30.0, 30.0 ]
                }
            },
            {
                "box": {
                    "comment": "",
                    "id": "obj-40",
                    "index": 1,
                    "maxclass": "outlet",
                    "numinlets": 1,
                    "numoutlets": 0,
                    "patching_rect": [ 276.0, 464.0, 30.0, 30.0 ]
                }
            },
            {
                "box": {
                    "id": "obj-19",
                    "maxclass": "newobj",
                    "numinlets": 1,
                    "numoutlets": 2,
                    "outlettype": [ "bang", "int" ],
                    "patching_rect": [ 312.0, 315.0, 33.0, 22.0 ],
                    "text": "t b i"
                }
            },
            {
                "box": {
                    "id": "obj-18",
                    "maxclass": "newobj",
                    "numinlets": 2,
                    "numoutlets": 1,
                    "outlettype": [ "int" ],
                    "patching_rect": [ 312.0, 344.0, 129.0, 22.0 ],
                    "text": "i"
                }
            },
            {
                "box": {
                    "id": "obj-10",
                    "maxclass": "newobj",
                    "numinlets": 2,
                    "numoutlets": 2,
                    "outlettype": [ "", "" ],
                    "patching_rect": [ 276.0, 435.0, 51.0, 22.0 ],
                    "text": "zl.group"
                }
            },
            {
                "box": {
                    "id": "obj-6",
                    "maxclass": "newobj",
                    "numinlets": 2,
                    "numoutlets": 3,
                    "outlettype": [ "bang", "bang", "int" ],
                    "patching_rect": [ 240.0, 286.0, 91.0, 22.0 ],
                    "text": "uzi 8 0"
                }
            },
            {
                "box": {
                    "id": "obj-4",
                    "maxclass": "newobj",
                    "numinlets": 2,
                    "numoutlets": 1,
                    "outlettype": [ "int" ],
                    "patching_rect": [ 312.0, 375.0, 33.0, 22.0 ],
                    "text": ">>"
                }
            },
            {
                "box": {
                    "id": "obj-1",
                    "maxclass": "newobj",
                    "numinlets": 2,
                    "numoutlets": 1,
                    "outlettype": [ "int" ],
                    "patching_rect": [ 312.0, 405.0, 30.0, 22.0 ],
                    "text": "& 1"
                }
            }
        ],
        "lines": [
            {
                "patchline": {
                    "destination": [ "obj-10", 0 ],
                    "source": [ "obj-1", 0 ]
                }
            },
            {
                "patchline": {
                    "destination": [ "obj-40", 0 ],
                    "source": [ "obj-10", 0 ]
                }
            },
            {
                "patchline": {
                    "destination": [ "obj-4", 0 ],
                    "source": [ "obj-18", 0 ]
                }
            },
            {
                "patchline": {
                    "destination": [ "obj-18", 0 ],
                    "source": [ "obj-19", 0 ]
                }
            },
            {
                "patchline": {
                    "destination": [ "obj-4", 1 ],
                    "source": [ "obj-19", 1 ]
                }
            },
            {
                "patchline": {
                    "destination": [ "obj-7", 0 ],
                    "source": [ "obj-2", 2 ]
                }
            },
            {
                "patchline": {
                    "destination": [ "obj-5", 0 ],
                    "source": [ "obj-3", 1 ]
                }
            },
            {
                "patchline": {
                    "destination": [ "obj-1", 0 ],
                    "source": [ "obj-4", 0 ]
                }
            },
            {
                "patchline": {
                    "destination": [ "obj-2", 0 ],
                    "order": 0,
                    "source": [ "obj-41", 0 ]
                }
            },
            {
                "patchline": {
                    "destination": [ "obj-42", 0 ],
                    "order": 1,
                    "source": [ "obj-41", 0 ]
                }
            },
            {
                "patchline": {
                    "destination": [ "obj-6", 1 ],
                    "source": [ "obj-42", 0 ]
                }
            },
            {
                "patchline": {
                    "destination": [ "obj-42", 0 ],
                    "source": [ "obj-5", 1 ]
                }
            },
            {
                "patchline": {
                    "destination": [ "obj-10", 0 ],
                    "source": [ "obj-6", 1 ]
                }
            },
            {
                "patchline": {
                    "destination": [ "obj-19", 0 ],
                    "source": [ "obj-6", 2 ]
                }
            },
            {
                "patchline": {
                    "destination": [ "obj-18", 1 ],
                    "source": [ "obj-7", 1 ]
                }
            },
            {
                "patchline": {
                    "destination": [ "obj-6", 0 ],
                    "midpoints": [ 420.5, 273.0, 249.5, 273.0 ],
                    "source": [ "obj-7", 0 ]
                }
            }
        ]
    }
}