{
    "patcher": {
        "fileversion": 1,
        "appversion": {
            "major": 9,
            "minor": 1,
            "revision": 2,
            "architecture": "x64",
            "modernui": 1
        },
        "classnamespace": "box",
        "rect": [ 2.0, 66.0, 1096.0, 1051.0 ],
        "openinpresentation": 1,
        "gridsnaponopen": 2,
        "toolbars_unpinned_last_save": 15,
        "subpatcher_template": "no_borders",
        "integercoordinates": 1,
        "boxes": [
            {
                "box": {
                    "id": "obj-33",
                    "maxclass": "newobj",
                    "numinlets": 0,
                    "numoutlets": 1,
                    "outlettype": [ "" ],
                    "patcher": {
                        "fileversion": 1,
                        "appversion": {
                            "major": 9,
                            "minor": 1,
                            "revision": 2,
                            "architecture": "x64",
                            "modernui": 1
                        },
                        "classnamespace": "box",
                        "rect": [ 60.0, 134.0, 783.0, 669.0 ],
                        "toolbars_unpinned_last_save": 15,
                        "subpatcher_template": "no_borders",
                        "integercoordinates": 1,
                        "boxes": [
                            {
                                "box": {
                                    "id": "obj-59",
                                    "maxclass": "newobj",
                                    "numinlets": 1,
                                    "numoutlets": 1,
                                    "outlettype": [ "" ],
                                    "patcher": {
                                        "fileversion": 1,
                                        "appversion": {
                                            "major": 9,
                                            "minor": 1,
                                            "revision": 2,
                                            "architecture": "x64",
                                            "modernui": 1
                                        },
                                        "classnamespace": "box",
                                        "rect": [ 574.0, 523.0, 394.0, 439.0 ],
                                        "toolbars_unpinned_last_save": 15,
                                        "subpatcher_template": "no_borders",
                                        "integercoordinates": 1,
                                        "boxes": [
                                            {
                                                "box": {
                                                    "id": "obj-5",
                                                    "maxclass": "newobj",
                                                    "numinlets": 2,
                                                    "numoutlets": 2,
                                                    "outlettype": [ "", "" ],
                                                    "patching_rect": [ 150.0, 195.0, 85.0, 22.0 ],
                                                    "text": "route text::soft"
                                                }
                                            },
                                            {
                                                "box": {
                                                    "id": "obj-4",
                                                    "maxclass": "message",
                                                    "numinlets": 2,
                                                    "numoutlets": 1,
                                                    "outlettype": [ "" ],
                                                    "patching_rect": [ 135.0, 135.0, 74.0, 22.0 ],
                                                    "text": "get text::soft"
                                                }
                                            },
                                            {
                                                "box": {
                                                    "id": "obj-8",
                                                    "maxclass": "newobj",
                                                    "numinlets": 1,
                                                    "numoutlets": 1,
                                                    "outlettype": [ "" ],
                                                    "patching_rect": [ 150.0, 225.0, 63.0, 22.0 ],
                                                    "text": "array.tolist"
                                                }
                                            },
                                            {
                                                "box": {
                                                    "id": "obj-1",
                                                    "maxclass": "newobj",
                                                    "numinlets": 2,
                                                    "numoutlets": 5,
                                                    "outlettype": [ "dictionary", "", "", "", "" ],
                                                    "patching_rect": [ 135.0, 165.0, 79.0, 22.0 ],
                                                    "saved_object_attributes": {
                                                        "legacy": 0,
                                                        "parameter_enable": 0,
                                                        "parameter_mappable": 0
                                                    },
                                                    "text": "dict os.colors"
                                                }
                                            },
                                            {
                                                "box": {
                                                    "id": "obj-34",
                                                    "maxclass": "newobj",
                                                    "numinlets": 1,
                                                    "numoutlets": 1,
                                                    "outlettype": [ "" ],
                                                    "patching_rect": [ 150.0, 255.0, 133.0, 22.0 ],
                                                    "text": "prepend activetextcolor"
                                                }
                                            },
                                            {
                                                "box": {
                                                    "comment": "",
                                                    "id": "obj-46",
                                                    "index": 1,
                                                    "maxclass": "inlet",
                                                    "numinlets": 0,
                                                    "numoutlets": 1,
                                                    "outlettype": [ "" ],
                                                    "patching_rect": [ 135.0, 90.0, 30.0, 30.0 ]
                                                }
                                            },
                                            {
                                                "box": {
                                                    "comment": "",
                                                    "id": "obj-47",
                                                    "index": 1,
                                                    "maxclass": "outlet",
                                                    "numinlets": 1,
                                                    "numoutlets": 0,
                                                    "patching_rect": [ 150.0, 300.0, 30.0, 30.0 ]
                                                }
                                            }
                                        ],
                                        "lines": [
                                            {
                                                "patchline": {
                                                    "destination": [ "obj-5", 0 ],
                                                    "source": [ "obj-1", 1 ]
                                                }
                                            },
                                            {
                                                "patchline": {
                                                    "destination": [ "obj-47", 0 ],
                                                    "source": [ "obj-34", 0 ]
                                                }
                                            },
                                            {
                                                "patchline": {
                                                    "destination": [ "obj-1", 0 ],
                                                    "source": [ "obj-4", 0 ]
                                                }
                                            },
                                            {
                                                "patchline": {
                                                    "destination": [ "obj-4", 0 ],
                                                    "source": [ "obj-46", 0 ]
                                                }
                                            },
                                            {
                                                "patchline": {
                                                    "destination": [ "obj-8", 0 ],
                                                    "source": [ "obj-5", 0 ]
                                                }
                                            },
                                            {
                                                "patchline": {
                                                    "destination": [ "obj-34", 0 ],
                                                    "source": [ "obj-8", 0 ]
                                                }
                                            }
                                        ]
                                    },
                                    "patching_rect": [ 50.0, 130.0, 80.0, 22.0 ],
                                    "text": "p color-select"
                                }
                            },
                            {
                                "box": {
                                    "id": "obj-60",
                                    "maxclass": "newobj",
                                    "numinlets": 0,
                                    "numoutlets": 1,
                                    "outlettype": [ "" ],
                                    "patching_rect": [ 50.0, 100.0, 104.0, 22.0 ],
                                    "text": "r os.colors.update"
                                }
                            },
                            {
                                "box": {
                                    "comment": "",
                                    "id": "obj-24",
                                    "index": 1,
                                    "maxclass": "outlet",
                                    "numinlets": 1,
                                    "numoutlets": 0,
                                    "patching_rect": [ 50.0, 212.0, 30.0, 30.0 ]
                                }
                            }
                        ],
                        "lines": [
                            {
                                "patchline": {
                                    "destination": [ "obj-24", 0 ],
                                    "source": [ "obj-59", 0 ]
                                }
                            },
                            {
                                "patchline": {
                                    "destination": [ "obj-59", 0 ],
                                    "source": [ "obj-60", 0 ]
                                }
                            }
                        ]
                    },
                    "patching_rect": [ 255.0, 105.0, 51.0, 22.0 ],
                    "text": "p colors"
                }
            },
            {
                "box": {
                    "id": "obj-63",
                    "maxclass": "newobj",
                    "numinlets": 1,
                    "numoutlets": 1,
                    "outlettype": [ "" ],
                    "patching_rect": [ 90.0, 898.0, 111.0, 22.0 ],
                    "text": "sprintf track%d.snd"
                }
            },
            {
                "box": {
                    "id": "obj-62",
                    "maxclass": "newobj",
                    "numinlets": 1,
                    "numoutlets": 1,
                    "outlettype": [ "" ],
                    "patching_rect": [ 90.0, 928.0, 72.0, 22.0 ],
                    "text": "prepend set"
                }
            },
            {
                "box": {
                    "id": "obj-61",
                    "maxclass": "newobj",
                    "numinlets": 1,
                    "numoutlets": 1,
                    "outlettype": [ "" ],
                    "patching_rect": [ 90.0, 960.0, 47.0, 22.0 ],
                    "text": "receive"
                }
            },
            {
                "box": {
                    "border": 0,
                    "filename": "interactive-bang-icon.js",
                    "id": "obj-68",
                    "maxclass": "v8ui",
                    "numinlets": 1,
                    "numoutlets": 2,
                    "outlettype": [ "", "" ],
                    "parameter_enable": 0,
                    "patching_rect": [ 274.0, 1004.0, 15.0, 15.0 ],
                    "presentation": 1,
                    "presentation_rect": [ 8.0, 72.0, 15.0, 15.0 ],
                    "textfile": {
                        "filename": "interactive-bang-icon.js",
                        "flags": 0,
                        "embed": 0,
                        "autowatch": 1
                    }
                }
            },
            {
                "box": {
                    "border": 0,
                    "filename": "interactive-bang-icon.js",
                    "id": "obj-66",
                    "maxclass": "v8ui",
                    "numinlets": 1,
                    "numoutlets": 2,
                    "outlettype": [ "", "" ],
                    "parameter_enable": 0,
                    "patching_rect": [ 274.0, 534.0, 15.0, 15.0 ],
                    "presentation": 1,
                    "presentation_rect": [ 8.0, 49.0, 15.0, 15.0 ],
                    "textfile": {
                        "filename": "interactive-bang-icon.js",
                        "flags": 0,
                        "embed": 0,
                        "autowatch": 1
                    }
                }
            },
            {
                "box": {
                    "id": "obj-58",
                    "maxclass": "newobj",
                    "numinlets": 1,
                    "numoutlets": 1,
                    "outlettype": [ "" ],
                    "patching_rect": [ 165.0, 105.0, 75.0, 22.0 ],
                    "text": "prepend text"
                }
            },
            {
                "box": {
                    "activebgcolor": [ 0.172549019607843, 0.215686274509804, 0.258823529411765, 0.0 ],
                    "activebgoncolor": [ 0.901960784313726, 0.650980392156863, 0.050980392156863, 0.0 ],
                    "activetextcolor": [ 0.9, 0.9, 0.9, 0.66 ],
                    "bgcolor": [ 0.172549019607843, 0.215686274509804, 0.258823529411765, 0.0 ],
                    "bgoncolor": [ 0.541176470588235, 0.541176470588235, 0.541176470588235, 0.0 ],
                    "bordercolor": [ 0.062745098039216, 0.117647058823529, 0.156862745098039, 0.0 ],
                    "fontname": "Hasklug Nerd Font Mono",
                    "fontsize": 14.0,
                    "id": "obj-42",
                    "maxclass": "live.text",
                    "numinlets": 1,
                    "numoutlets": 2,
                    "outlettype": [ "", "" ],
                    "parameter_enable": 1,
                    "patching_rect": [ 255.0, 150.0, 30.0, 30.0 ],
                    "presentation": 1,
                    "presentation_rect": [ 0.0, 0.0, 30.0, 26.0 ],
                    "saved_attribute_attributes": {
                        "activebgcolor": {
                            "expression": ""
                        },
                        "activebgoncolor": {
                            "expression": ""
                        },
                        "activetextcolor": {
                            "expression": ""
                        },
                        "bgcolor": {
                            "expression": ""
                        },
                        "bgoncolor": {
                            "expression": ""
                        },
                        "bordercolor": {
                            "expression": ""
                        },
                        "valueof": {
                            "parameter_enum": [ "val1", "val2" ],
                            "parameter_longname": "live.text[18]",
                            "parameter_mmax": 1,
                            "parameter_modmode": 0,
                            "parameter_shortname": "live.text[18]",
                            "parameter_type": 2
                        }
                    },
                    "text": "1",
                    "varname": "live.text"
                }
            },
            {
                "box": {
                    "id": "obj-54",
                    "maxclass": "newobj",
                    "numinlets": 0,
                    "numoutlets": 1,
                    "outlettype": [ "" ],
                    "patching_rect": [ 516.0, 1620.0, 116.0, 22.0 ],
                    "text": "r #0-color-change"
                }
            },
            {
                "box": {
                    "id": "obj-55",
                    "maxclass": "newobj",
                    "numinlets": 1,
                    "numoutlets": 1,
                    "outlettype": [ "" ],
                    "patcher": {
                        "fileversion": 1,
                        "appversion": {
                            "major": 9,
                            "minor": 1,
                            "revision": 2,
                            "architecture": "x64",
                            "modernui": 1
                        },
                        "classnamespace": "box",
                        "rect": [ 60.0, 134.0, 783.0, 669.0 ],
                        "toolbars_unpinned_last_save": 15,
                        "subpatcher_template": "no_borders",
                        "integercoordinates": 1,
                        "boxes": [
                            {
                                "box": {
                                    "id": "obj-45",
                                    "maxclass": "newobj",
                                    "numinlets": 1,
                                    "numoutlets": 1,
                                    "outlettype": [ "" ],
                                    "patching_rect": [ 89.0, 106.0, 63.0, 22.0 ],
                                    "text": "array.tolist"
                                }
                            },
                            {
                                "box": {
                                    "id": "obj-44",
                                    "maxclass": "newobj",
                                    "numinlets": 1,
                                    "numoutlets": 1,
                                    "outlettype": [ "" ],
                                    "patching_rect": [ 89.0, 135.0, 125.0, 22.0 ],
                                    "text": "prepend elementcolor"
                                }
                            },
                            {
                                "box": {
                                    "id": "obj-33",
                                    "maxclass": "newobj",
                                    "numinlets": 2,
                                    "numoutlets": 2,
                                    "outlettype": [ "", "" ],
                                    "patching_rect": [ 89.0, 77.0, 73.0, 22.0 ],
                                    "text": "route muted"
                                }
                            },
                            {
                                "box": {
                                    "comment": "",
                                    "id": "obj-46",
                                    "index": 1,
                                    "maxclass": "inlet",
                                    "numinlets": 0,
                                    "numoutlets": 1,
                                    "outlettype": [ "" ],
                                    "patching_rect": [ 89.0, 40.0, 30.0, 30.0 ]
                                }
                            },
                            {
                                "box": {
                                    "comment": "",
                                    "id": "obj-47",
                                    "index": 1,
                                    "maxclass": "outlet",
                                    "numinlets": 1,
                                    "numoutlets": 0,
                                    "patching_rect": [ 89.0, 170.0, 30.0, 30.0 ]
                                }
                            }
                        ],
                        "lines": [
                            {
                                "patchline": {
                                    "destination": [ "obj-45", 0 ],
                                    "source": [ "obj-33", 0 ]
                                }
                            },
                            {
                                "patchline": {
                                    "destination": [ "obj-47", 0 ],
                                    "source": [ "obj-44", 0 ]
                                }
                            },
                            {
                                "patchline": {
                                    "destination": [ "obj-44", 0 ],
                                    "source": [ "obj-45", 0 ]
                                }
                            },
                            {
                                "patchline": {
                                    "destination": [ "obj-33", 0 ],
                                    "source": [ "obj-46", 0 ]
                                }
                            }
                        ]
                    },
                    "patching_rect": [ 516.0, 1650.0, 61.0, 22.0 ],
                    "text": "p slider-ui"
                }
            },
            {
                "box": {
                    "id": "obj-46",
                    "maxclass": "newobj",
                    "numinlets": 0,
                    "numoutlets": 1,
                    "outlettype": [ "" ],
                    "patching_rect": [ 1035.0, 930.0, 116.0, 22.0 ],
                    "text": "r #0-color-change"
                }
            },
            {
                "box": {
                    "id": "obj-47",
                    "maxclass": "newobj",
                    "numinlets": 1,
                    "numoutlets": 1,
                    "outlettype": [ "" ],
                    "patcher": {
                        "fileversion": 1,
                        "appversion": {
                            "major": 9,
                            "minor": 1,
                            "revision": 2,
                            "architecture": "x64",
                            "modernui": 1
                        },
                        "classnamespace": "box",
                        "rect": [ 60.0, 134.0, 783.0, 669.0 ],
                        "toolbars_unpinned_last_save": 15,
                        "subpatcher_template": "no_borders",
                        "integercoordinates": 1,
                        "boxes": [
                            {
                                "box": {
                                    "id": "obj-45",
                                    "maxclass": "newobj",
                                    "numinlets": 1,
                                    "numoutlets": 1,
                                    "outlettype": [ "" ],
                                    "patching_rect": [ 89.0, 106.0, 63.0, 22.0 ],
                                    "text": "array.tolist"
                                }
                            },
                            {
                                "box": {
                                    "id": "obj-44",
                                    "maxclass": "newobj",
                                    "numinlets": 1,
                                    "numoutlets": 1,
                                    "outlettype": [ "" ],
                                    "patching_rect": [ 89.0, 135.0, 125.0, 22.0 ],
                                    "text": "prepend elementcolor"
                                }
                            },
                            {
                                "box": {
                                    "id": "obj-33",
                                    "maxclass": "newobj",
                                    "numinlets": 2,
                                    "numoutlets": 2,
                                    "outlettype": [ "", "" ],
                                    "patching_rect": [ 89.0, 77.0, 73.0, 22.0 ],
                                    "text": "route muted"
                                }
                            },
                            {
                                "box": {
                                    "comment": "",
                                    "id": "obj-46",
                                    "index": 1,
                                    "maxclass": "inlet",
                                    "numinlets": 0,
                                    "numoutlets": 1,
                                    "outlettype": [ "" ],
                                    "patching_rect": [ 89.0, 40.0, 30.0, 30.0 ]
                                }
                            },
                            {
                                "box": {
                                    "comment": "",
                                    "id": "obj-47",
                                    "index": 1,
                                    "maxclass": "outlet",
                                    "numinlets": 1,
                                    "numoutlets": 0,
                                    "patching_rect": [ 89.0, 170.0, 30.0, 30.0 ]
                                }
                            }
                        ],
                        "lines": [
                            {
                                "patchline": {
                                    "destination": [ "obj-45", 0 ],
                                    "source": [ "obj-33", 0 ]
                                }
                            },
                            {
                                "patchline": {
                                    "destination": [ "obj-47", 0 ],
                                    "source": [ "obj-44", 0 ]
                                }
                            },
                            {
                                "patchline": {
                                    "destination": [ "obj-44", 0 ],
                                    "source": [ "obj-45", 0 ]
                                }
                            },
                            {
                                "patchline": {
                                    "destination": [ "obj-33", 0 ],
                                    "source": [ "obj-46", 0 ]
                                }
                            }
                        ]
                    },
                    "patching_rect": [ 1035.0, 960.0, 69.0, 22.0 ],
                    "text": "p umenu-ui"
                }
            },
            {
                "box": {
                    "id": "obj-45",
                    "maxclass": "newobj",
                    "numinlets": 0,
                    "numoutlets": 1,
                    "outlettype": [ "" ],
                    "patching_rect": [ 1035.0, 457.0, 116.0, 22.0 ],
                    "text": "r #0-color-change"
                }
            },
            {
                "box": {
                    "id": "obj-44",
                    "maxclass": "newobj",
                    "numinlets": 1,
                    "numoutlets": 0,
                    "patching_rect": [ 1365.0, 334.0, 118.0, 22.0 ],
                    "text": "s #0-color-change"
                }
            },
            {
                "box": {
                    "id": "obj-48",
                    "maxclass": "newobj",
                    "numinlets": 1,
                    "numoutlets": 1,
                    "outlettype": [ "" ],
                    "patcher": {
                        "fileversion": 1,
                        "appversion": {
                            "major": 9,
                            "minor": 1,
                            "revision": 2,
                            "architecture": "x64",
                            "modernui": 1
                        },
                        "classnamespace": "box",
                        "rect": [ 60.0, 134.0, 783.0, 669.0 ],
                        "toolbars_unpinned_last_save": 15,
                        "subpatcher_template": "no_borders",
                        "integercoordinates": 1,
                        "boxes": [
                            {
                                "box": {
                                    "id": "obj-45",
                                    "maxclass": "newobj",
                                    "numinlets": 1,
                                    "numoutlets": 1,
                                    "outlettype": [ "" ],
                                    "patching_rect": [ 89.0, 106.0, 63.0, 22.0 ],
                                    "text": "array.tolist"
                                }
                            },
                            {
                                "box": {
                                    "id": "obj-44",
                                    "maxclass": "newobj",
                                    "numinlets": 1,
                                    "numoutlets": 1,
                                    "outlettype": [ "" ],
                                    "patching_rect": [ 89.0, 135.0, 125.0, 22.0 ],
                                    "text": "prepend elementcolor"
                                }
                            },
                            {
                                "box": {
                                    "id": "obj-33",
                                    "maxclass": "newobj",
                                    "numinlets": 2,
                                    "numoutlets": 2,
                                    "outlettype": [ "", "" ],
                                    "patching_rect": [ 89.0, 77.0, 73.0, 22.0 ],
                                    "text": "route muted"
                                }
                            },
                            {
                                "box": {
                                    "comment": "",
                                    "id": "obj-46",
                                    "index": 1,
                                    "maxclass": "inlet",
                                    "numinlets": 0,
                                    "numoutlets": 1,
                                    "outlettype": [ "" ],
                                    "patching_rect": [ 89.0, 40.0, 30.0, 30.0 ]
                                }
                            },
                            {
                                "box": {
                                    "comment": "",
                                    "id": "obj-47",
                                    "index": 1,
                                    "maxclass": "outlet",
                                    "numinlets": 1,
                                    "numoutlets": 0,
                                    "patching_rect": [ 89.0, 170.0, 30.0, 30.0 ]
                                }
                            }
                        ],
                        "lines": [
                            {
                                "patchline": {
                                    "destination": [ "obj-45", 0 ],
                                    "source": [ "obj-33", 0 ]
                                }
                            },
                            {
                                "patchline": {
                                    "destination": [ "obj-47", 0 ],
                                    "source": [ "obj-44", 0 ]
                                }
                            },
                            {
                                "patchline": {
                                    "destination": [ "obj-44", 0 ],
                                    "source": [ "obj-45", 0 ]
                                }
                            },
                            {
                                "patchline": {
                                    "destination": [ "obj-33", 0 ],
                                    "source": [ "obj-46", 0 ]
                                }
                            }
                        ]
                    },
                    "patching_rect": [ 1035.0, 487.0, 69.0, 22.0 ],
                    "text": "p umenu-ui"
                }
            },
            {
                "box": {
                    "id": "obj-8",
                    "maxclass": "newobj",
                    "numinlets": 1,
                    "numoutlets": 1,
                    "outlettype": [ "" ],
                    "patcher": {
                        "fileversion": 1,
                        "appversion": {
                            "major": 9,
                            "minor": 1,
                            "revision": 2,
                            "architecture": "x64",
                            "modernui": 1
                        },
                        "classnamespace": "box",
                        "rect": [ 60.0, 134.0, 783.0, 669.0 ],
                        "toolbars_unpinned_last_save": 15,
                        "subpatcher_template": "no_borders",
                        "integercoordinates": 1,
                        "boxes": [
                            {
                                "box": {
                                    "id": "obj-7",
                                    "maxclass": "newobj",
                                    "numinlets": 1,
                                    "numoutlets": 1,
                                    "outlettype": [ "" ],
                                    "patching_rect": [ 50.0, 141.0, 73.0, 22.0 ],
                                    "text": "prepend get"
                                }
                            },
                            {
                                "box": {
                                    "id": "obj-2",
                                    "maxclass": "newobj",
                                    "numinlets": 2,
                                    "numoutlets": 2,
                                    "outlettype": [ "", "" ],
                                    "patching_rect": [ 148.0, 88.0, 58.0, 22.0 ],
                                    "text": "array.at 1"
                                }
                            },
                            {
                                "box": {
                                    "id": "obj-1",
                                    "maxclass": "newobj",
                                    "numinlets": 1,
                                    "numoutlets": 2,
                                    "outlettype": [ "", "" ],
                                    "patching_rect": [ 148.0, 60.0, 72.0, 22.0 ],
                                    "text": "patcherargs"
                                }
                            },
                            {
                                "box": {
                                    "id": "obj-48",
                                    "maxclass": "newobj",
                                    "numinlets": 1,
                                    "numoutlets": 1,
                                    "outlettype": [ "" ],
                                    "patching_rect": [ 230.0, 316.0, 89.0, 22.0 ],
                                    "text": "prepend muted"
                                }
                            },
                            {
                                "box": {
                                    "id": "obj-47",
                                    "maxclass": "newobj",
                                    "numinlets": 1,
                                    "numoutlets": 1,
                                    "outlettype": [ "" ],
                                    "patching_rect": [ 65.0, 316.0, 93.0, 22.0 ],
                                    "text": "prepend normal"
                                }
                            },
                            {
                                "box": {
                                    "id": "obj-31",
                                    "maxclass": "newobj",
                                    "numinlets": 1,
                                    "numoutlets": 3,
                                    "outlettype": [ "", "", "" ],
                                    "patching_rect": [ 65.0, 243.0, 349.0, 22.0 ],
                                    "saved_object_attributes": {
                                        "legacy": 0
                                    },
                                    "text": "dict.unpack normal: muted:"
                                }
                            },
                            {
                                "box": {
                                    "id": "obj-27",
                                    "maxclass": "newobj",
                                    "numinlets": 2,
                                    "numoutlets": 2,
                                    "outlettype": [ "", "" ],
                                    "patching_rect": [ 65.0, 213.0, 102.0, 22.0 ],
                                    "text": "route"
                                }
                            },
                            {
                                "box": {
                                    "id": "obj-30",
                                    "maxclass": "newobj",
                                    "numinlets": 2,
                                    "numoutlets": 5,
                                    "outlettype": [ "dictionary", "", "", "", "" ],
                                    "patching_rect": [ 50.0, 183.0, 79.0, 22.0 ],
                                    "saved_object_attributes": {
                                        "legacy": 0,
                                        "parameter_enable": 0,
                                        "parameter_mappable": 0
                                    },
                                    "text": "dict os.colors"
                                }
                            },
                            {
                                "box": {
                                    "comment": "",
                                    "id": "obj-51",
                                    "index": 1,
                                    "maxclass": "inlet",
                                    "numinlets": 0,
                                    "numoutlets": 1,
                                    "outlettype": [ "bang" ],
                                    "patching_rect": [ 148.0, 22.0, 30.0, 30.0 ]
                                }
                            },
                            {
                                "box": {
                                    "comment": "",
                                    "id": "obj-52",
                                    "index": 1,
                                    "maxclass": "outlet",
                                    "numinlets": 1,
                                    "numoutlets": 0,
                                    "patching_rect": [ 65.0, 371.0, 30.0, 30.0 ]
                                }
                            }
                        ],
                        "lines": [
                            {
                                "patchline": {
                                    "destination": [ "obj-2", 0 ],
                                    "source": [ "obj-1", 0 ]
                                }
                            },
                            {
                                "patchline": {
                                    "destination": [ "obj-27", 1 ],
                                    "order": 0,
                                    "source": [ "obj-2", 0 ]
                                }
                            },
                            {
                                "patchline": {
                                    "destination": [ "obj-7", 0 ],
                                    "order": 1,
                                    "source": [ "obj-2", 0 ]
                                }
                            },
                            {
                                "patchline": {
                                    "destination": [ "obj-31", 0 ],
                                    "source": [ "obj-27", 0 ]
                                }
                            },
                            {
                                "patchline": {
                                    "destination": [ "obj-27", 0 ],
                                    "source": [ "obj-30", 1 ]
                                }
                            },
                            {
                                "patchline": {
                                    "destination": [ "obj-47", 0 ],
                                    "source": [ "obj-31", 0 ]
                                }
                            },
                            {
                                "patchline": {
                                    "destination": [ "obj-48", 0 ],
                                    "source": [ "obj-31", 1 ]
                                }
                            },
                            {
                                "patchline": {
                                    "destination": [ "obj-52", 0 ],
                                    "source": [ "obj-47", 0 ]
                                }
                            },
                            {
                                "patchline": {
                                    "destination": [ "obj-52", 0 ],
                                    "source": [ "obj-48", 0 ]
                                }
                            },
                            {
                                "patchline": {
                                    "destination": [ "obj-1", 0 ],
                                    "source": [ "obj-51", 0 ]
                                }
                            },
                            {
                                "patchline": {
                                    "destination": [ "obj-30", 0 ],
                                    "source": [ "obj-7", 0 ]
                                }
                            }
                        ]
                    },
                    "patching_rect": [ 1365.0, 300.0, 94.0, 22.0 ],
                    "text": "p get-colors text"
                }
            },
            {
                "box": {
                    "id": "obj-26",
                    "maxclass": "button",
                    "numinlets": 1,
                    "numoutlets": 1,
                    "outlettype": [ "bang" ],
                    "parameter_enable": 0,
                    "patching_rect": [ 1365.0, 253.0, 24.0, 24.0 ]
                }
            },
            {
                "box": {
                    "id": "obj-29",
                    "maxclass": "newobj",
                    "numinlets": 0,
                    "numoutlets": 1,
                    "outlettype": [ "" ],
                    "patching_rect": [ 1405.0, 254.0, 104.0, 22.0 ],
                    "text": "r os.colors.update"
                }
            },
            {
                "box": {
                    "id": "obj-6",
                    "maxclass": "newobj",
                    "numinlets": 1,
                    "numoutlets": 3,
                    "outlettype": [ "", "", "" ],
                    "patching_rect": [ 649.0, 1125.0, 292.0, 22.0 ],
                    "restore": [
                        {                        }
                    ],
                    "saved_object_attributes": {
                        "parameter_enable": 0,
                        "parameter_mappable": 0
                    },
                    "text": "pattr instrument_parameters @autorestore 0 @thru 2",
                    "varname": "instrument_parameters"
                }
            },
            {
                "box": {
                    "id": "obj-43",
                    "maxclass": "newobj",
                    "numinlets": 1,
                    "numoutlets": 1,
                    "outlettype": [ "" ],
                    "patching_rect": [ 540.0, 1995.0, 39.0, 22.0 ],
                    "text": "atodb"
                }
            },
            {
                "box": {
                    "id": "obj-32",
                    "maxclass": "newobj",
                    "numinlets": 1,
                    "numoutlets": 1,
                    "outlettype": [ "signal" ],
                    "patching_rect": [ 516.0, 2055.0, 31.0, 22.0 ],
                    "text": "sig~"
                }
            },
            {
                "box": {
                    "id": "obj-34",
                    "maxclass": "newobj",
                    "numinlets": 3,
                    "numoutlets": 1,
                    "outlettype": [ "signal" ],
                    "patching_rect": [ 516.0, 2085.0, 114.0, 22.0 ],
                    "text": "slide~ 20000 20000"
                }
            },
            {
                "box": {
                    "id": "obj-40",
                    "maxclass": "newobj",
                    "numinlets": 1,
                    "numoutlets": 1,
                    "outlettype": [ "" ],
                    "patching_rect": [ 516.0, 1935.0, 39.0, 22.0 ],
                    "text": "dbtoa"
                }
            },
            {
                "box": {
                    "id": "obj-53",
                    "maxclass": "message",
                    "numinlets": 2,
                    "numoutlets": 1,
                    "outlettype": [ "" ],
                    "patching_rect": [ 270.0, 1035.0, 35.0, 22.0 ],
                    "text": "open"
                }
            },
            {
                "box": {
                    "id": "obj-27",
                    "maxclass": "newobj",
                    "numinlets": 1,
                    "numoutlets": 3,
                    "outlettype": [ "", "", "" ],
                    "patching_rect": [ 584.0, 645.0, 292.0, 22.0 ],
                    "restore": [
                        {                        }
                    ],
                    "saved_object_attributes": {
                        "parameter_enable": 0,
                        "parameter_mappable": 0
                    },
                    "text": "pattr sequencer_parameters @autorestore 0 @thru 2",
                    "varname": "sequencer_parameters"
                }
            },
            {
                "box": {
                    "id": "obj-30",
                    "maxclass": "message",
                    "numinlets": 2,
                    "numoutlets": 1,
                    "outlettype": [ "" ],
                    "patching_rect": [ 750.0, 930.0, 30.0, 22.0 ],
                    "text": "init"
                }
            },
            {
                "box": {
                    "id": "obj-31",
                    "maxclass": "newobj",
                    "numinlets": 0,
                    "numoutlets": 1,
                    "outlettype": [ "" ],
                    "patching_rect": [ 750.0, 900.0, 95.0, 22.0 ],
                    "text": "r main-loadbang"
                }
            },
            {
                "box": {
                    "id": "obj-28",
                    "maxclass": "message",
                    "numinlets": 2,
                    "numoutlets": 1,
                    "outlettype": [ "" ],
                    "patching_rect": [ 754.0, 457.0, 30.0, 22.0 ],
                    "text": "init"
                }
            },
            {
                "box": {
                    "id": "obj-22",
                    "maxclass": "newobj",
                    "numinlets": 0,
                    "numoutlets": 1,
                    "outlettype": [ "" ],
                    "patching_rect": [ 754.0, 427.0, 95.0, 22.0 ],
                    "text": "r main-loadbang"
                }
            },
            {
                "box": {
                    "id": "obj-21",
                    "maxclass": "newobj",
                    "numinlets": 1,
                    "numoutlets": 3,
                    "outlettype": [ "", "", "" ],
                    "patching_rect": [ 750.0, 960.0, 261.0, 22.0 ],
                    "saved_object_attributes": {
                        "initial": [ " " ],
                        "parameter_enable": 0,
                        "parameter_mappable": 0
                    },
                    "text": "pattr instrument_slot @initial \" \" @autorestore 0",
                    "varname": "instrument_slot"
                }
            },
            {
                "box": {
                    "id": "obj-20",
                    "maxclass": "newobj",
                    "numinlets": 1,
                    "numoutlets": 3,
                    "outlettype": [ "", "", "" ],
                    "patching_rect": [ 754.0, 487.0, 262.0, 22.0 ],
                    "saved_object_attributes": {
                        "initial": [ " " ],
                        "parameter_enable": 0,
                        "parameter_mappable": 0
                    },
                    "text": "pattr sequencer_slot @initial \" \" @autorestore 0",
                    "varname": "sequencer_slot"
                }
            },
            {
                "box": {
                    "id": "obj-17",
                    "maxclass": "newobj",
                    "numinlets": 1,
                    "numoutlets": 3,
                    "outlettype": [ "", "", "" ],
                    "patching_rect": [ 540.0, 1965.0, 161.0, 22.0 ],
                    "saved_object_attributes": {
                        "initial": [ 1.0 ],
                        "parameter_enable": 0,
                        "parameter_mappable": 0
                    },
                    "text": "pattr gain @initial 1. @thru 2",
                    "varname": "gain"
                }
            },
            {
                "box": {
                    "id": "obj-39",
                    "maxclass": "newobj",
                    "numinlets": 1,
                    "numoutlets": 1,
                    "outlettype": [ "" ],
                    "patching_rect": [ 537.0, 1875.0, 72.0, 22.0 ],
                    "text": "prepend set"
                }
            },
            {
                "box": {
                    "activebgcolor": [ 0.205, 0.173, 0.152, 1.0 ],
                    "bordercolor": [ 0.205, 0.173, 0.152, 1.0 ],
                    "focusbordercolor": [ 0.205, 0.173, 0.152, 1.0 ],
                    "fontname": "Hasklug Nerd Font Mono",
                    "fontsize": 11.0,
                    "id": "obj-23",
                    "maxclass": "live.numbox",
                    "numinlets": 1,
                    "numoutlets": 2,
                    "outlettype": [ "", "float" ],
                    "parameter_enable": 1,
                    "patching_rect": [ 516.0, 1844.0, 37.0, 17.0 ],
                    "presentation": 1,
                    "presentation_rect": [ 154.0, 140.0, 35.0, 17.0 ],
                    "saved_attribute_attributes": {
                        "activebgcolor": {
                            "expression": "themecolor.theme_bgcolor"
                        },
                        "bordercolor": {
                            "expression": "themecolor.theme_bgcolor"
                        },
                        "focusbordercolor": {
                            "expression": "themecolor.theme_bgcolor"
                        },
                        "textcolor": {
                            "expression": "themecolor.theme_syntax_objectcolor"
                        },
                        "valueof": {
                            "parameter_longname": "live.numbox[3]",
                            "parameter_mmax": 12.0,
                            "parameter_mmin": -70.0,
                            "parameter_modmode": 3,
                            "parameter_shortname": "live.numbox",
                            "parameter_type": 0,
                            "parameter_unitstyle": 0
                        }
                    },
                    "textcolor": [ 0.956590352327427, 0.76614891786161, 0.452834090916593, 1.0 ],
                    "varname": "live.numbox[2]"
                }
            },
            {
                "box": {
                    "elementcolor": [ 0.9, 0.9, 0.9, 0.2 ],
                    "id": "obj-9",
                    "inputrangemode": 1,
                    "jspainterfile": "Macintosh HD:/Users/bss/Code/projects/max9/Projects/BssOS/bss-os/code/track-slider.js",
                    "knobcolor": [ 0.956590352327427, 0.76614891786161, 0.452834090916593, 1.0 ],
                    "knobshape": 5,
                    "maxclass": "slider",
                    "min": -70.0,
                    "numinlets": 1,
                    "numoutlets": 1,
                    "outlettype": [ "" ],
                    "parameter_enable": 0,
                    "patching_rect": [ 516.0, 1695.0, 20.0, 140.0 ],
                    "presentation": 1,
                    "presentation_rect": [ 160.0, 44.0, 22.0, 90.0 ],
                    "saved_attribute_attributes": {
                        "knobcolor": {
                            "expression": "themecolor.theme_syntax_objectcolor"
                        }
                    },
                    "size": 83.0,
                    "thickness": 30.0,
                    "varname": "slider"
                }
            },
            {
                "box": {
                    "id": "obj-25",
                    "linecolor": [ 0.297, 0.261, 0.238, 1.0 ],
                    "maxclass": "live.line",
                    "numinlets": 1,
                    "numoutlets": 0,
                    "patching_rect": [ 1243.0, 73.0, 5.0, 100.0 ],
                    "presentation": 1,
                    "presentation_rect": [ 0.0, 28.0, 195.0, 15.0 ],
                    "saved_attribute_attributes": {
                        "linecolor": {
                            "expression": "themecolor.theme_locked_bgcolor"
                        }
                    }
                }
            },
            {
                "box": {
                    "id": "obj-19",
                    "maxclass": "newobj",
                    "numinlets": 1,
                    "numoutlets": 1,
                    "outlettype": [ "bang" ],
                    "patching_rect": [ 90.0, 45.0, 58.0, 22.0 ],
                    "text": "loadbang"
                }
            },
            {
                "box": {
                    "id": "obj-7",
                    "maxclass": "newobj",
                    "numinlets": 1,
                    "numoutlets": 1,
                    "outlettype": [ "int" ],
                    "patching_rect": [ 90.0, 75.0, 29.0, 22.0 ],
                    "text": "t #1"
                }
            },
            {
                "box": {
                    "id": "obj-18",
                    "maxclass": "newobj",
                    "numinlets": 1,
                    "numoutlets": 1,
                    "outlettype": [ "" ],
                    "patching_rect": [ 529.0, 570.0, 179.0, 22.0 ],
                    "text": "load-patcher @type sequencers"
                }
            },
            {
                "box": {
                    "id": "obj-16",
                    "maxclass": "newobj",
                    "numinlets": 0,
                    "numoutlets": 1,
                    "outlettype": [ "clear" ],
                    "patching_rect": [ 465.0, 487.0, 248.0, 22.0 ],
                    "text": "populate-patcher-selector @type sequencers"
                }
            },
            {
                "box": {
                    "id": "obj-15",
                    "maxclass": "newobj",
                    "numinlets": 2,
                    "numoutlets": 1,
                    "outlettype": [ "multichannelsignal" ],
                    "patching_rect": [ 388.0, 2115.0, 147.0, 22.0 ],
                    "text": "mc.*~ 1"
                }
            },
            {
                "box": {
                    "id": "obj-10",
                    "maxclass": "newobj",
                    "numinlets": 1,
                    "numoutlets": 1,
                    "outlettype": [ "" ],
                    "patching_rect": [ 529.0, 1050.0, 155.0, 22.0 ],
                    "text": "load-patcher @type sounds"
                }
            },
            {
                "box": {
                    "id": "obj-12",
                    "maxclass": "newobj",
                    "numinlets": 0,
                    "numoutlets": 1,
                    "outlettype": [ "clear" ],
                    "patching_rect": [ 465.0, 960.0, 225.0, 22.0 ],
                    "text": "populate-patcher-selector @type sounds"
                }
            },
            {
                "box": {
                    "id": "obj-13",
                    "maxclass": "newobj",
                    "numinlets": 2,
                    "numoutlets": 4,
                    "outlettype": [ "multichannelsignal", "", "", "" ],
                    "patching_rect": [ 388.0, 1095.0, 411.0, 22.0 ],
                    "text": "mcs.poly~ snd.default 1 @resampling 0",
                    "varname": "poly~[1]"
                }
            },
            {
                "box": {
                    "applycolors": 1,
                    "arrow": 0,
                    "bgcolor": [ 0.205, 0.173, 0.152, 1.0 ],
                    "bgfillcolor_angle": 270.0,
                    "bgfillcolor_autogradient": 0.0,
                    "bgfillcolor_color": [ 0.205, 0.173, 0.152, 1.0 ],
                    "bgfillcolor_color1": [ 0.450980392156863, 0.494117647058824, 0.572549019607843, 1.0 ],
                    "bgfillcolor_color2": [ 0.290196078431373, 0.309803921568627, 0.301960784313725, 1.0 ],
                    "bgfillcolor_proportion": 0.39,
                    "bgfillcolor_type": "color",
                    "color": [ 0.297, 0.261, 0.238, 1.0 ],
                    "elementcolor": [ 0.9, 0.9, 0.9, 0.2 ],
                    "fontface": 0,
                    "fontname": "JetBrainsMono Nerd Font Mono",
                    "id": "obj-14",
                    "items": [ " ", ",", "surge-vst", ",", "midi-out" ],
                    "jspainterfile": "Macintosh HD:/Users/bss/Code/projects/max9/Projects/BssOS/bss-os/code/umenu-dark-bordered.js",
                    "maxclass": "umenu",
                    "numinlets": 1,
                    "numoutlets": 3,
                    "outlettype": [ "int", "", "" ],
                    "parameter_enable": 0,
                    "patching_rect": [ 465.0, 1020.0, 146.0, 24.0 ],
                    "pattrmode": 1,
                    "presentation": 1,
                    "presentation_rect": [ 30.0, 67.0, 120.0, 24.0 ],
                    "saved_attribute_attributes": {
                        "bgfillcolor": {
                            "expression": "themecolor.theme_bgcolor"
                        },
                        "color": {
                            "expression": "themecolor.theme_editing_bgcolor"
                        },
                        "textcolor": {
                            "expression": "themecolor.theme_textcolor_inverse"
                        }
                    },
                    "varname": "umenu[1]"
                }
            },
            {
                "box": {
                    "id": "obj-11",
                    "maxclass": "message",
                    "numinlets": 2,
                    "numoutlets": 1,
                    "outlettype": [ "" ],
                    "patching_rect": [ 270.0, 572.0, 35.0, 22.0 ],
                    "text": "open"
                }
            },
            {
                "box": {
                    "comment": "",
                    "id": "obj-4",
                    "index": 1,
                    "maxclass": "outlet",
                    "numinlets": 1,
                    "numoutlets": 0,
                    "patching_rect": [ 388.0, 2145.0, 30.0, 30.0 ]
                }
            },
            {
                "box": {
                    "id": "obj-3",
                    "maxclass": "newobj",
                    "numinlets": 2,
                    "numoutlets": 3,
                    "outlettype": [ "", "", "" ],
                    "patching_rect": [ 388.0, 615.0, 411.0, 22.0 ],
                    "text": "poly~ seq.default 1 @resampling 0",
                    "varname": "poly~"
                }
            },
            {
                "box": {
                    "applycolors": 1,
                    "arrow": 0,
                    "bgcolor": [ 0.205, 0.173, 0.152, 1.0 ],
                    "bgfillcolor_angle": 270.0,
                    "bgfillcolor_autogradient": 0.0,
                    "bgfillcolor_color": [ 0.205, 0.173, 0.152, 1.0 ],
                    "bgfillcolor_color1": [ 0.450980392156863, 0.494117647058824, 0.572549019607843, 1.0 ],
                    "bgfillcolor_color2": [ 0.290196078431373, 0.309803921568627, 0.301960784313725, 1.0 ],
                    "bgfillcolor_proportion": 0.39,
                    "bgfillcolor_type": "color",
                    "color": [ 0.297, 0.261, 0.238, 1.0 ],
                    "elementcolor": [ 0.9, 0.9, 0.9, 0.2 ],
                    "fontface": 0,
                    "fontname": "JetBrainsMono Nerd Font Mono",
                    "id": "obj-2",
                    "items": [ " ", ",", "directions" ],
                    "jspainterfile": "Macintosh HD:/Users/bss/Code/projects/max9/Projects/BssOS/bss-os/code/umenu-dark-bordered.js",
                    "maxclass": "umenu",
                    "numinlets": 1,
                    "numoutlets": 3,
                    "outlettype": [ "int", "", "" ],
                    "parameter_enable": 0,
                    "patching_rect": [ 465.0, 541.0, 146.0, 24.0 ],
                    "pattrmode": 1,
                    "presentation": 1,
                    "presentation_rect": [ 30.0, 44.0, 120.0, 24.0 ],
                    "saved_attribute_attributes": {
                        "bgfillcolor": {
                            "expression": "themecolor.theme_bgcolor"
                        },
                        "color": {
                            "expression": "themecolor.theme_editing_bgcolor"
                        },
                        "textcolor": {
                            "expression": "themecolor.theme_textcolor_inverse"
                        }
                    },
                    "varname": "umenu_seq"
                }
            },
            {
                "box": {
                    "comment": "",
                    "id": "obj-1",
                    "index": 1,
                    "maxclass": "inlet",
                    "numinlets": 0,
                    "numoutlets": 1,
                    "outlettype": [ "" ],
                    "patching_rect": [ 388.0, 326.0, 30.0, 30.0 ]
                }
            },
            {
                "box": {
                    "angle": 270.0,
                    "background": 1,
                    "bgcolor": [ 0.205, 0.173, 0.152, 1.0 ],
                    "id": "obj-5",
                    "maxclass": "panel",
                    "mode": 0,
                    "numinlets": 1,
                    "numoutlets": 0,
                    "patching_rect": [ 1110.0, 45.0, 128.0, 128.0 ],
                    "presentation": 1,
                    "presentation_rect": [ 0.0, 0.0, 195.0, 165.0 ],
                    "proportion": 0.5,
                    "rounded": 0,
                    "saved_attribute_attributes": {
                        "bgfillcolor": {
                            "expression": "themecolor.theme_bgcolor"
                        }
                    }
                }
            }
        ],
        "lines": [
            {
                "patchline": {
                    "destination": [ "obj-3", 0 ],
                    "source": [ "obj-1", 0 ]
                }
            },
            {
                "patchline": {
                    "destination": [ "obj-13", 0 ],
                    "midpoints": [ 538.5, 1084.21484375, 397.5, 1084.21484375 ],
                    "source": [ "obj-10", 0 ]
                }
            },
            {
                "patchline": {
                    "destination": [ "obj-3", 0 ],
                    "midpoints": [ 279.5, 604.1171875, 397.5, 604.1171875 ],
                    "source": [ "obj-11", 0 ]
                }
            },
            {
                "patchline": {
                    "destination": [ "obj-14", 0 ],
                    "source": [ "obj-12", 0 ]
                }
            },
            {
                "patchline": {
                    "destination": [ "obj-15", 0 ],
                    "source": [ "obj-13", 0 ]
                }
            },
            {
                "patchline": {
                    "destination": [ "obj-6", 0 ],
                    "source": [ "obj-13", 2 ]
                }
            },
            {
                "patchline": {
                    "destination": [ "obj-10", 0 ],
                    "source": [ "obj-14", 1 ]
                }
            },
            {
                "patchline": {
                    "destination": [ "obj-4", 0 ],
                    "source": [ "obj-15", 0 ]
                }
            },
            {
                "patchline": {
                    "destination": [ "obj-2", 0 ],
                    "source": [ "obj-16", 0 ]
                }
            },
            {
                "patchline": {
                    "destination": [ "obj-43", 0 ],
                    "source": [ "obj-17", 0 ]
                }
            },
            {
                "patchline": {
                    "destination": [ "obj-3", 0 ],
                    "midpoints": [ 538.5, 603.7734375, 397.5, 603.7734375 ],
                    "source": [ "obj-18", 0 ]
                }
            },
            {
                "patchline": {
                    "destination": [ "obj-7", 0 ],
                    "source": [ "obj-19", 0 ]
                }
            },
            {
                "patchline": {
                    "destination": [ "obj-18", 0 ],
                    "source": [ "obj-2", 1 ]
                }
            },
            {
                "patchline": {
                    "destination": [ "obj-2", 0 ],
                    "midpoints": [ 885.0, 528.0, 474.5, 528.0 ],
                    "source": [ "obj-20", 1 ]
                }
            },
            {
                "patchline": {
                    "destination": [ "obj-14", 0 ],
                    "midpoints": [ 880.5, 1005.0, 474.5, 1005.0 ],
                    "source": [ "obj-21", 1 ]
                }
            },
            {
                "patchline": {
                    "destination": [ "obj-28", 0 ],
                    "source": [ "obj-22", 0 ]
                }
            },
            {
                "patchline": {
                    "destination": [ "obj-39", 0 ],
                    "order": 0,
                    "source": [ "obj-23", 0 ]
                }
            },
            {
                "patchline": {
                    "destination": [ "obj-40", 0 ],
                    "order": 1,
                    "source": [ "obj-23", 0 ]
                }
            },
            {
                "patchline": {
                    "destination": [ "obj-8", 0 ],
                    "source": [ "obj-26", 0 ]
                }
            },
            {
                "patchline": {
                    "destination": [ "obj-3", 1 ],
                    "midpoints": [ 593.5, 676.7265625, 893.953125, 676.7265625, 893.953125, 612.0, 789.5, 612.0 ],
                    "source": [ "obj-27", 0 ]
                }
            },
            {
                "patchline": {
                    "destination": [ "obj-20", 0 ],
                    "source": [ "obj-28", 0 ]
                }
            },
            {
                "patchline": {
                    "destination": [ "obj-8", 0 ],
                    "source": [ "obj-29", 0 ]
                }
            },
            {
                "patchline": {
                    "destination": [ "obj-13", 0 ],
                    "source": [ "obj-3", 0 ]
                }
            },
            {
                "patchline": {
                    "destination": [ "obj-27", 0 ],
                    "source": [ "obj-3", 1 ]
                }
            },
            {
                "patchline": {
                    "destination": [ "obj-21", 0 ],
                    "source": [ "obj-30", 0 ]
                }
            },
            {
                "patchline": {
                    "destination": [ "obj-30", 0 ],
                    "source": [ "obj-31", 0 ]
                }
            },
            {
                "patchline": {
                    "destination": [ "obj-34", 0 ],
                    "source": [ "obj-32", 0 ]
                }
            },
            {
                "patchline": {
                    "destination": [ "obj-42", 0 ],
                    "source": [ "obj-33", 0 ]
                }
            },
            {
                "patchline": {
                    "destination": [ "obj-15", 1 ],
                    "source": [ "obj-34", 0 ]
                }
            },
            {
                "patchline": {
                    "destination": [ "obj-9", 0 ],
                    "midpoints": [ 546.5, 1905.50390625, 501.0, 1905.50390625, 501.0, 1692.0, 525.5, 1692.0 ],
                    "source": [ "obj-39", 0 ]
                }
            },
            {
                "patchline": {
                    "destination": [ "obj-17", 0 ],
                    "order": 0,
                    "source": [ "obj-40", 0 ]
                }
            },
            {
                "patchline": {
                    "destination": [ "obj-32", 0 ],
                    "order": 1,
                    "source": [ "obj-40", 0 ]
                }
            },
            {
                "patchline": {
                    "destination": [ "obj-9", 0 ],
                    "midpoints": [ 549.5, 2022.58984375, 501.0, 2022.58984375, 501.0, 1692.0, 525.5, 1692.0 ],
                    "source": [ "obj-43", 0 ]
                }
            },
            {
                "patchline": {
                    "destination": [ "obj-48", 0 ],
                    "source": [ "obj-45", 0 ]
                }
            },
            {
                "patchline": {
                    "destination": [ "obj-47", 0 ],
                    "source": [ "obj-46", 0 ]
                }
            },
            {
                "patchline": {
                    "destination": [ "obj-13", 0 ],
                    "midpoints": [ 279.5, 1080.0, 397.5, 1080.0 ],
                    "source": [ "obj-53", 0 ]
                }
            },
            {
                "patchline": {
                    "destination": [ "obj-55", 0 ],
                    "source": [ "obj-54", 0 ]
                }
            },
            {
                "patchline": {
                    "destination": [ "obj-42", 0 ],
                    "midpoints": [ 174.5, 147.0, 264.5, 147.0 ],
                    "source": [ "obj-58", 0 ]
                }
            },
            {
                "patchline": {
                    "destination": [ "obj-13", 1 ],
                    "midpoints": [ 658.5, 1149.0, 645.0, 1149.0, 645.0, 1119.0, 801.0, 1119.0, 801.0, 1092.0, 789.5, 1092.0 ],
                    "source": [ "obj-6", 0 ]
                }
            },
            {
                "patchline": {
                    "destination": [ "obj-13", 0 ],
                    "midpoints": [ 99.5, 1080.0, 397.5, 1080.0 ],
                    "source": [ "obj-61", 0 ]
                }
            },
            {
                "patchline": {
                    "destination": [ "obj-61", 0 ],
                    "source": [ "obj-62", 0 ]
                }
            },
            {
                "patchline": {
                    "destination": [ "obj-62", 0 ],
                    "source": [ "obj-63", 0 ]
                }
            },
            {
                "patchline": {
                    "destination": [ "obj-11", 0 ],
                    "source": [ "obj-66", 0 ]
                }
            },
            {
                "patchline": {
                    "destination": [ "obj-53", 0 ],
                    "source": [ "obj-68", 0 ]
                }
            },
            {
                "patchline": {
                    "destination": [ "obj-58", 0 ],
                    "midpoints": [ 99.5, 99.0, 174.5, 99.0 ],
                    "order": 0,
                    "source": [ "obj-7", 0 ]
                }
            },
            {
                "patchline": {
                    "destination": [ "obj-63", 0 ],
                    "order": 1,
                    "source": [ "obj-7", 0 ]
                }
            },
            {
                "patchline": {
                    "destination": [ "obj-44", 0 ],
                    "source": [ "obj-8", 0 ]
                }
            },
            {
                "patchline": {
                    "destination": [ "obj-23", 0 ],
                    "source": [ "obj-9", 0 ]
                }
            }
        ]
    }
}